# Blender v2.77 (sub 0) OBJ File: 'booster.blend'
# www.blender.org
mtllib booster.mtl
o Cylinder
v -0.000001 -7.260586 -9.256761
v -0.000001 -0.000003 -4.759217
v 1.805904 -7.260586 -9.078895
v 0.928477 -0.000003 -4.667770
v 3.542409 -7.260586 -8.552132
v 1.821274 -0.000003 -4.396943
v 5.142781 -7.260586 -7.696714
v 2.644080 -0.000003 -3.957144
v 6.545519 -7.260586 -6.545517
v 3.365276 -0.000003 -3.365275
v 7.696717 -7.260586 -5.142779
v 3.957146 -0.000003 -2.644079
v 8.552133 -7.260586 -3.542408
v 4.396945 -0.000003 -1.821273
v 9.078896 -7.260586 -1.805903
v 4.667771 -0.000003 -0.928476
v 9.256763 -7.260586 0.000002
v 4.759218 -0.000003 0.000001
v 9.078897 -7.260586 1.805907
v 4.667771 -0.000003 0.928478
v 8.552134 -7.260586 3.542411
v 4.396945 -0.000003 1.821275
v 7.696717 -7.260586 5.142785
v 3.957146 -0.000003 2.644082
v 6.545519 -7.260586 6.545523
v 3.365276 -0.000003 3.365277
v 5.142781 -7.260586 7.696721
v 2.644080 -0.000003 3.957148
v 3.542408 -7.260586 8.552138
v 1.821273 -0.000003 4.396947
v 1.805902 -7.260586 9.078900
v 0.928476 -0.000003 4.667774
v -0.000004 -7.260586 9.256765
v -0.000002 -0.000003 4.759220
v -1.805910 -7.260586 9.078899
v -0.928480 -0.000003 4.667773
v -3.542415 -7.260586 8.552135
v -1.821277 -0.000003 4.396945
v -5.142788 -7.260586 7.696717
v -2.644083 -0.000003 3.957146
v -6.545526 -7.260586 6.545519
v -3.365278 -0.000003 3.365275
v -7.696723 -7.260586 5.142779
v -3.957148 -0.000003 2.644079
v -8.552138 -7.260586 3.542406
v -4.396947 -0.000003 1.821272
v -9.078899 -7.260586 1.805900
v -4.667774 -0.000003 0.928475
v -9.256763 -7.260586 -0.000006
v -4.759220 -0.000003 -0.000003
v -9.078897 -7.260586 -1.805912
v -4.667772 -0.000003 -0.928481
v -8.552132 -7.260586 -3.542417
v -4.396943 -0.000003 -1.821278
v -7.696712 -7.260586 -5.142789
v -3.957143 -0.000003 -2.644084
v -6.545513 -7.260586 -6.545526
v -3.365272 -0.000003 -3.365279
v -5.142773 -7.260586 -7.696722
v -2.644075 -0.000003 -3.957148
v -3.542398 -7.260586 -8.552136
v -1.821268 -0.000003 -4.396946
v -1.805892 -7.260586 -9.078897
v -0.928471 -0.000003 -4.667772
v -0.000001 -7.260586 -6.656829
v 1.298682 -7.260586 -6.528920
v 2.547459 -7.260586 -6.150108
v 3.698337 -7.260586 -5.534951
v 4.707089 -7.260586 -4.707088
v 5.534952 -7.260586 -3.698335
v 6.150109 -7.260586 -2.547457
v 6.528921 -7.260586 -1.298682
v 6.656830 -7.260586 0.000001
v 6.528922 -7.260586 1.298684
v 6.150109 -7.260586 2.547460
v 5.534952 -7.260586 3.698339
v 4.707089 -7.260586 4.707092
v 3.698336 -7.260586 5.534955
v 2.547457 -7.260586 6.150112
v 1.298681 -7.260586 6.528924
v -0.000003 -7.260586 6.656833
v -1.298687 -7.260586 6.528923
v -2.547462 -7.260586 6.150111
v -3.698341 -7.260586 5.534953
v -4.707094 -7.260586 4.707089
v -5.534956 -7.260586 3.698335
v -6.150113 -7.260586 2.547456
v -6.528924 -7.260586 1.298679
v -6.656832 -7.260586 -0.000005
v -6.528922 -7.260586 -1.298688
v -6.150108 -7.260586 -2.547464
v -5.534949 -7.260586 -3.698342
v -4.707085 -7.260586 -4.707094
v -3.698330 -7.260586 -5.534956
v -2.547451 -7.260586 -6.150112
v -1.298674 -7.260586 -6.528922
v -0.000001 -5.413656 -5.674637
v 1.107067 -5.413656 -5.565601
v 2.171590 -5.413656 -5.242682
v 3.152660 -5.413656 -4.718288
v 4.012575 -5.413656 -4.012574
v 4.718289 -5.413656 -3.152658
v 5.242682 -5.413656 -2.171589
v 5.565601 -5.413656 -1.107066
v 5.674638 -5.413656 0.000001
v 5.565602 -5.413656 1.107068
v 5.242682 -5.413656 2.171591
v 4.718289 -5.413656 3.152662
v 4.012575 -5.413656 4.012577
v 3.152660 -5.413656 4.718292
v 2.171589 -5.413656 5.242685
v 1.107065 -5.413656 5.565605
v -0.000002 -5.413656 5.674641
v -1.107070 -5.413656 5.565604
v -2.171593 -5.413656 5.242684
v -3.152664 -5.413656 4.718290
v -4.012579 -5.413656 4.012575
v -4.718293 -5.413656 3.152659
v -5.242685 -5.413656 2.171587
v -5.565604 -5.413656 1.107064
v -5.674640 -5.413656 -0.000004
v -5.565602 -5.413656 -1.107071
v -5.242682 -5.413656 -2.171595
v -4.718287 -5.413656 -3.152665
v -4.012571 -5.413656 -4.012579
v -3.152655 -5.413656 -4.718293
v -2.171583 -5.413656 -5.242684
v -1.107059 -5.413656 -5.565602
vt 0.5555 0.3220
vt 0.5351 0.1614
vt 0.5549 0.1591
vt 0.5839 0.3170
vt 0.5743 0.1557
vt 0.6117 0.3105
vt 0.5933 0.1512
vt 0.6389 0.3025
vt 0.6119 0.1458
vt 0.6653 0.2931
vt 0.6300 0.1394
vt 0.6910 0.2825
vt 0.6476 0.1320
vt 0.7158 0.2705
vt 0.6646 0.1238
vt 0.7398 0.2575
vt 0.6810 0.1147
vt 0.7630 0.2433
vt 0.6968 0.1047
vt 0.7853 0.2281
vt 0.7119 0.0939
vt 0.8068 0.2118
vt 0.7263 0.0822
vt 0.8278 0.1946
vt 0.7399 0.0698
vt 0.8483 0.1764
vt 0.7527 0.0564
vt 0.8689 0.1570
vt 0.7646 0.0420
vt 0.8900 0.1360
vt 0.7755 0.0263
vt 0.9128 0.1127
vt 0.7846 0.0099
vt 0.9395 0.0856
vt 0.0592 0.1716
vt 0.2271 0.0381
vt 0.2429 0.0559
vt 0.0993 0.1983
vt 0.2597 0.0719
vt 0.1343 0.2205
vt 0.2773 0.0864
vt 0.1668 0.2395
vt 0.2955 0.0995
vt 0.1978 0.2561
vt 0.3143 0.1112
vt 0.2282 0.2708
vt 0.3335 0.1217
vt 0.2583 0.2837
vt 0.3531 0.1310
vt 0.2882 0.2949
vt 0.3730 0.1391
vt 0.3182 0.3045
vt 0.3931 0.1460
vt 0.3482 0.3124
vt 0.4134 0.1517
vt 0.3782 0.3187
vt 0.4338 0.1562
vt 0.4082 0.3234
vt 0.4542 0.1595
vt 0.4381 0.3263
vt 0.4746 0.1617
vt 0.4679 0.3277
vt 0.4950 0.1627
vt 0.4974 0.3274
vt 0.9329 0.8703
vt 0.9030 0.9002
vt 0.8679 0.9237
vt 0.8288 0.9399
vt 0.7874 0.9481
vt 0.7451 0.9481
vt 0.7037 0.9399
vt 0.6646 0.9237
vt 0.6295 0.9002
vt 0.5996 0.8703
vt 0.5761 0.8352
vt 0.5600 0.7962
vt 0.5517 0.7547
vt 0.5517 0.7125
vt 0.5600 0.6710
vt 0.5761 0.6320
vt 0.5996 0.5968
vt 0.6295 0.5669
vt 0.6646 0.5435
vt 0.7037 0.5273
vt 0.7451 0.5191
vt 0.7874 0.5191
vt 0.8288 0.5273
vt 0.8679 0.5435
vt 0.9030 0.5669
vt 0.9329 0.5968
vt 0.9564 0.6320
vt 0.9725 0.6710
vt 0.9808 0.7125
vt 0.9808 0.7547
vt 0.9725 0.7962
vt 0.9564 0.8352
vt 0.5152 0.1626
vt 0.5267 0.3255
vt 0.9719 0.1375
vt 0.9470 0.1555
vt 0.0673 0.2653
vt 0.1035 0.2812
vt 0.0781 0.3426
vt 0.0439 0.3293
vt 0.3345 0.3680
vt 0.3017 0.3598
vt 0.6546 0.3527
vt 0.6248 0.3619
vt 0.8805 0.2136
vt 0.8588 0.2325
vt 0.2038 0.3259
vt 0.1711 0.3119
vt 0.4989 0.3824
vt 0.4663 0.3831
vt 0.7897 0.2854
vt 0.7647 0.3013
vt 0.0281 0.2505
vt 0.3675 0.3744
vt 0.6836 0.3419
vt 0.9020 0.1943
vt 0.2364 0.3387
vt 0.5312 0.3798
vt 0.8136 0.2685
vt 0.4005 0.3791
vt 0.7116 0.3297
vt 0.9239 0.1749
vt 0.2689 0.3500
vt 0.5942 0.3696
vt 0.5630 0.3756
vt 0.8366 0.2509
vt 0.1378 0.2969
vt 0.4335 0.3820
vt 0.7387 0.3161
vt 0.2488 0.4990
vt 0.2963 0.4990
vt 0.3429 0.5083
vt 0.3868 0.5265
vt 0.4264 0.5529
vt 0.4600 0.5865
vt 0.4864 0.6260
vt 0.5046 0.6699
vt 0.5139 0.7166
vt 0.5139 0.7641
vt 0.5046 0.8107
vt 0.4864 0.8546
vt 0.4600 0.8941
vt 0.4264 0.9278
vt 0.3869 0.9542
vt 0.3429 0.9724
vt 0.2963 0.9816
vt 0.2488 0.9816
vt 0.2022 0.9724
vt 0.1582 0.9542
vt 0.1187 0.9278
vt 0.0851 0.8941
vt 0.0587 0.8546
vt 0.0405 0.8107
vt 0.0312 0.7641
vt 0.0312 0.7166
vt 0.0405 0.6699
vt 0.0587 0.6260
vt 0.0851 0.5865
vt 0.1187 0.5529
vt 0.1582 0.5265
vt 0.2022 0.5083
vt 0.7356 0.3810
vt 0.7050 0.3952
vt 0.5723 0.4346
vt 0.5372 0.4398
vt 0.1120 0.3568
vt 0.7650 0.3655
vt 0.1458 0.3711
vt 0.7932 0.3485
vt 0.1798 0.3851
vt 0.8199 0.3305
vt 0.2143 0.3982
vt 0.8453 0.3115
vt 0.2493 0.4100
vt 0.8693 0.2919
vt 0.2847 0.4204
vt 0.8921 0.2719
vt 0.3206 0.4290
vt 0.9138 0.2519
vt 0.3567 0.4358
vt 0.9349 0.2324
vt 0.3930 0.4406
vt 0.9558 0.2136
vt 0.6067 0.4274
vt 0.4294 0.4434
vt 0.9770 0.1963
vt 0.6404 0.4184
vt 0.4656 0.4442
vt 0.9993 0.1807
vt 0.6732 0.4077
vt 0.5016 0.4430
vt 0.0089 0.3179
vn 0.0000 -0.4647 -0.8854
vn 0.0000 0.8607 -0.5090
vn 0.0993 0.8607 -0.4993
vn 0.1727 -0.4647 -0.8684
vn 0.1948 0.8607 -0.4703
vn 0.3388 -0.4647 -0.8180
vn 0.2828 0.8607 -0.4232
vn 0.4919 -0.4647 -0.7362
vn 0.3599 0.8607 -0.3599
vn 0.6261 -0.4647 -0.6261
vn 0.4232 0.8607 -0.2828
vn 0.7362 -0.4647 -0.4919
vn 0.4703 0.8607 -0.1948
vn 0.8180 -0.4647 -0.3388
vn 0.4993 0.8607 -0.0993
vn 0.8684 -0.4647 -0.1727
vn 0.5090 0.8607 0.0000
vn 0.8854 -0.4647 0.0000
vn 0.4993 0.8607 0.0993
vn 0.8684 -0.4647 0.1727
vn 0.4703 0.8607 0.1948
vn 0.8180 -0.4647 0.3388
vn 0.4232 0.8607 0.2828
vn 0.7362 -0.4647 0.4919
vn 0.3599 0.8607 0.3599
vn 0.6261 -0.4647 0.6261
vn 0.2828 0.8607 0.4232
vn 0.4919 -0.4647 0.7362
vn 0.1948 0.8607 0.4703
vn 0.3388 -0.4647 0.8180
vn 0.0993 0.8607 0.4993
vn 0.1727 -0.4647 0.8684
vn 0.0000 0.8607 0.5090
vn 0.0000 -0.4647 0.8854
vn -0.0993 0.8607 0.4993
vn -0.1727 -0.4647 0.8684
vn -0.1948 0.8607 0.4703
vn -0.3388 -0.4647 0.8180
vn -0.2828 0.8607 0.4232
vn -0.4919 -0.4647 0.7362
vn -0.3599 0.8607 0.3599
vn -0.6261 -0.4647 0.6261
vn -0.4232 0.8607 0.2828
vn -0.7362 -0.4647 0.4919
vn -0.4703 0.8607 0.1948
vn -0.8180 -0.4647 0.3388
vn -0.4993 0.8607 0.0993
vn -0.8684 -0.4647 0.1727
vn -0.5090 0.8607 0.0000
vn -0.8854 -0.4647 0.0000
vn -0.4993 0.8607 -0.0993
vn -0.8684 -0.4647 -0.1727
vn -0.4703 0.8607 -0.1948
vn -0.8180 -0.4647 -0.3388
vn -0.4232 0.8607 -0.2828
vn -0.7362 -0.4647 -0.4919
vn -0.3599 0.8607 -0.3599
vn -0.6261 -0.4647 -0.6261
vn -0.2828 0.8607 -0.4232
vn -0.4919 -0.4647 -0.7362
vn -0.1948 0.8607 -0.4703
vn -0.3388 -0.4647 -0.8180
vn -0.0993 0.8607 -0.4993
vn -0.1727 -0.4647 -0.8684
vn 0.0000 -0.8714 -0.4906
vn -0.0957 -0.8714 -0.4812
vn 0.0957 -0.8714 -0.4812
vn 0.1877 -0.8714 -0.4532
vn 0.2058 -0.8430 -0.4969
vn 0.1049 -0.8430 -0.5275
vn 0.4812 -0.8714 0.0957
vn 0.4906 -0.8714 0.0000
vn -0.2725 -0.8714 0.4079
vn -0.1877 -0.8714 0.4532
vn -0.3469 -0.8714 -0.3469
vn -0.4079 -0.8714 -0.2725
vn 0.4079 -0.8714 -0.2725
vn 0.3469 -0.8714 -0.3469
vn 0.1877 -0.8714 0.4532
vn 0.2725 -0.8714 0.4079
vn -0.4906 -0.8714 0.0000
vn -0.4812 -0.8714 0.0957
vn 0.4532 -0.8714 0.1877
vn -0.3469 -0.8714 0.3469
vn -0.2725 -0.8714 -0.4079
vn 0.4532 -0.8714 -0.1877
vn 0.0957 -0.8714 0.4812
vn -0.4812 -0.8714 -0.0957
vn 0.4079 -0.8714 0.2725
vn -0.4079 -0.8714 0.2725
vn -0.1877 -0.8714 -0.4532
vn 0.4812 -0.8714 -0.0957
vn -0.0957 -0.8714 0.4812
vn 0.0000 -0.8714 0.4906
vn -0.4532 -0.8714 -0.1877
vn 0.2725 -0.8714 -0.4079
vn 0.3469 -0.8714 0.3469
vn -0.4532 -0.8714 0.1877
vn 0.0000 -0.8430 0.5379
vn -0.1049 -0.8430 0.5275
vn -0.2058 -0.8430 0.4969
vn -0.2988 -0.8430 0.4472
vn -0.3803 -0.8430 0.3803
vn -0.4472 -0.8430 0.2988
vn -0.4969 -0.8430 0.2058
vn -0.5275 -0.8430 0.1049
vn -0.5379 -0.8430 0.0000
vn -0.5275 -0.8430 -0.1049
vn -0.4969 -0.8430 -0.2058
vn -0.4472 -0.8430 -0.2988
vn -0.3803 -0.8430 -0.3803
vn -0.2988 -0.8430 -0.4472
vn -0.2058 -0.8430 -0.4969
vn -0.1049 -0.8430 -0.5275
vn 0.0000 -0.8430 -0.5379
vn 0.2988 -0.8430 -0.4472
vn 0.3803 -0.8430 -0.3803
vn 0.4472 -0.8430 -0.2988
vn 0.4969 -0.8430 -0.2058
vn 0.5275 -0.8430 -0.1049
vn 0.5379 -0.8430 0.0000
vn 0.5275 -0.8430 0.1049
vn 0.4969 -0.8430 0.2058
vn 0.4472 -0.8430 0.2988
vn 0.3803 -0.8430 0.3803
vn 0.2988 -0.8430 0.4472
vn 0.2058 -0.8430 0.4969
vn 0.1049 -0.8430 0.5275
usemtl Material.001
s 1
f 1/1/1 2/2/2 4/3/3 3/4/4
f 3/4/4 4/3/3 6/5/5 5/6/6
f 5/6/6 6/5/5 8/7/7 7/8/8
f 7/8/8 8/7/7 10/9/9 9/10/10
f 9/10/10 10/9/9 12/11/11 11/12/12
f 11/12/12 12/11/11 14/13/13 13/14/14
f 13/14/14 14/13/13 16/15/15 15/16/16
f 15/16/16 16/15/15 18/17/17 17/18/18
f 17/18/18 18/17/17 20/19/19 19/20/20
f 19/20/20 20/19/19 22/21/21 21/22/22
f 21/22/22 22/21/21 24/23/23 23/24/24
f 23/24/24 24/23/23 26/25/25 25/26/26
f 25/26/26 26/25/25 28/27/27 27/28/28
f 27/28/28 28/27/27 30/29/29 29/30/30
f 29/30/30 30/29/29 32/31/31 31/32/32
f 31/32/32 32/31/31 34/33/33 33/34/34
f 33/35/34 34/36/33 36/37/35 35/38/36
f 35/38/36 36/37/35 38/39/37 37/40/38
f 37/40/38 38/39/37 40/41/39 39/42/40
f 39/42/40 40/41/39 42/43/41 41/44/42
f 41/44/42 42/43/41 44/45/43 43/46/44
f 43/46/44 44/45/43 46/47/45 45/48/46
f 45/48/46 46/47/45 48/49/47 47/50/48
f 47/50/48 48/49/47 50/51/49 49/52/50
f 49/52/50 50/51/49 52/53/51 51/54/52
f 51/54/52 52/53/51 54/55/53 53/56/54
f 53/56/54 54/55/53 56/57/55 55/58/56
f 55/58/56 56/57/55 58/59/57 57/60/58
f 57/60/58 58/59/57 60/61/59 59/62/60
f 59/62/60 60/61/59 62/63/61 61/64/62
f 4/65/3 2/66/2 64/67/63 62/68/61 60/69/59 58/70/57 56/71/55 54/72/53 52/73/51 50/74/49 48/75/47 46/76/45 44/77/43 42/78/41 40/79/39 38/80/37 36/81/35 34/82/33 32/83/31 30/84/29 28/85/27 26/86/25 24/87/23 22/88/21 20/89/19 18/90/17 16/91/15 14/92/13 12/93/11 10/94/9 8/95/7 6/96/5
f 61/64/62 62/63/61 64/97/63 63/98/64
f 63/98/64 64/97/63 2/2/2 1/1/1
f 31/32/32 33/34/34 81/99/65 80/100/66
f 82/101/67 83/102/68 115/103/69 114/104/70
f 49/52/50 51/54/52 90/105/71 89/106/72
f 5/6/6 7/8/8 68/107/73 67/108/74
f 23/24/24 25/26/26 77/109/75 76/110/76
f 41/44/42 43/46/44 86/111/77 85/112/78
f 59/62/60 61/64/62 95/113/79 94/114/80
f 15/16/16 17/18/18 73/115/81 72/116/82
f 33/35/34 35/38/36 82/101/67 81/117/65
f 51/54/52 53/56/54 91/118/83 90/105/71
f 7/8/8 9/10/10 69/119/84 68/107/73
f 25/26/26 27/28/28 78/120/85 77/109/75
f 43/46/44 45/48/46 87/121/86 86/111/77
f 61/64/62 63/98/64 96/122/87 95/113/79
f 17/18/18 19/20/20 74/123/88 73/115/81
f 35/38/36 37/40/38 83/102/68 82/101/67
f 53/56/54 55/58/56 92/124/89 91/118/83
f 9/10/10 11/12/12 70/125/90 69/119/84
f 27/28/28 29/30/30 79/126/91 78/120/85
f 45/48/46 47/50/48 88/127/92 87/121/86
f 1/1/1 3/4/4 66/128/93 65/129/94
f 63/98/64 1/1/1 65/129/94 96/122/87
f 19/20/20 21/22/22 75/130/95 74/123/88
f 37/40/38 39/42/40 84/131/96 83/102/68
f 55/58/56 57/60/58 93/132/97 92/124/89
f 11/12/12 13/14/14 71/133/98 70/125/90
f 29/30/30 31/32/32 80/100/66 79/126/91
f 47/50/48 49/52/50 89/106/72 88/127/92
f 3/4/4 5/6/6 67/108/74 66/128/93
f 21/22/22 23/24/24 76/110/76 75/130/95
f 39/42/40 41/44/42 85/112/78 84/131/96
f 57/60/58 59/62/60 94/114/80 93/132/97
f 13/14/14 15/16/16 72/116/82 71/133/98
f 97/134/99 98/135/100 99/136/101 100/137/102 101/138/103 102/139/104 103/140/105 104/141/106 105/142/107 106/143/108 107/144/109 108/145/110 109/146/111 110/147/112 111/148/113 112/149/114 113/150/115 114/151/70 115/152/69 116/153/116 117/154/117 118/155/118 119/156/119 120/157/120 121/158/121 122/159/122 123/160/123 124/161/124 125/162/125 126/163/126 127/164/127 128/165/128
f 69/119/84 70/125/90 102/166/104 101/167/103
f 96/122/87 65/129/94 97/168/99 128/169/128
f 83/102/68 84/131/96 116/170/116 115/103/69
f 70/125/90 71/133/98 103/171/105 102/166/104
f 84/131/96 85/112/78 117/172/117 116/170/116
f 71/133/98 72/116/82 104/173/106 103/171/105
f 85/112/78 86/111/77 118/174/118 117/172/117
f 72/116/82 73/115/81 105/175/107 104/173/106
f 86/111/77 87/121/86 119/176/119 118/174/118
f 73/115/81 74/123/88 106/177/108 105/175/107
f 87/121/86 88/127/92 120/178/120 119/176/119
f 74/123/88 75/130/95 107/179/109 106/177/108
f 88/127/92 89/106/72 121/180/121 120/178/120
f 75/130/95 76/110/76 108/181/110 107/179/109
f 89/106/72 90/105/71 122/182/122 121/180/121
f 76/110/76 77/109/75 109/183/111 108/181/110
f 90/105/71 91/118/83 123/184/123 122/182/122
f 77/109/75 78/120/85 110/185/112 109/183/111
f 91/118/83 92/124/89 124/186/124 123/184/123
f 78/120/85 79/126/91 111/187/113 110/185/112
f 65/129/94 66/128/93 98/188/100 97/168/99
f 92/124/89 93/132/97 125/189/125 124/186/124
f 79/126/91 80/100/66 112/190/114 111/187/113
f 66/128/93 67/108/74 99/191/101 98/188/100
f 93/132/97 94/114/80 126/192/126 125/189/125
f 80/100/66 81/99/65 113/193/115 112/190/114
f 67/108/74 68/107/73 100/194/102 99/191/101
f 94/114/80 95/113/79 127/195/127 126/192/126
f 81/117/65 82/101/67 114/104/70 113/196/115
f 68/107/73 69/119/84 101/167/103 100/194/102
f 95/113/79 96/122/87 128/169/128 127/195/127
