# Blender v2.77 (sub 0) OBJ File: 'accelerateur.blend'
# www.blender.org
mtllib accelerateur.mtl
o Cube
v -0.496980 0.700000 -2.499998
v -0.496980 0.700000 2.499999
v 0.826580 0.700000 2.499999
v 0.826580 0.700000 -2.499999
v -0.496980 -0.050000 -2.499997
v -0.496980 -0.050000 2.500001
v 0.826581 -0.050000 2.499998
v 0.826580 -0.050000 -2.499998
v 2.022219 0.700000 0.000001
v 3.345779 0.700000 -0.000000
v 2.022219 -0.050000 0.000002
v 3.345779 -0.050000 0.000000
v -3.154221 0.700000 -2.499998
v -3.154221 0.700000 2.499999
v -1.830661 0.700000 2.499999
v -1.830661 0.700000 -2.499999
v -3.154221 -0.050000 -2.499997
v -3.154221 -0.050000 2.500001
v -1.830660 -0.050000 2.499998
v -1.830661 -0.050000 -2.499998
v -0.635022 0.700000 0.000001
v 0.688538 0.700000 -0.000000
v -0.635022 -0.050000 0.000002
v 0.688538 -0.050000 0.000000
vt 0.3924 0.6556
vt 0.4708 0.0000
vt 0.4708 0.3444
vt 0.3924 1.0000
vt 0.0785 0.6556
vt 0.0785 1.0000
vt 0.0000 0.3444
vt 0.0000 0.0000
vt 1.0000 0.6556
vt 0.9535 0.6556
vt 0.9535 0.0000
vt 1.0000 0.0000
vt 0.6743 1.0000
vt 0.6278 1.0000
vt 0.6278 0.6556
vt 0.6743 0.6556
vt 0.7208 0.0000
vt 0.7674 0.0000
vt 0.7674 0.6556
vt 0.7208 0.6556
vt 0.7674 1.0000
vt 0.7208 1.0000
vt 0.6278 0.0000
vt 0.6743 0.0000
vt 0.8604 0.6556
vt 0.8139 0.6556
vt 0.8139 0.0000
vt 0.8604 0.0000
vt 0.1569 0.0000
vt 0.1569 0.3444
vt 0.3139 0.0000
vt 0.3139 0.3444
vt 0.5493 0.6556
vt 0.6278 0.0000
vt 0.6278 0.3444
vt 0.5493 1.0000
vt 0.2354 0.6556
vt 0.2354 1.0000
vt 0.1569 0.3444
vt 0.1569 0.0000
vt 0.9535 0.6556
vt 0.9069 0.6556
vt 0.9069 0.0000
vt 0.9535 0.0000
vt 0.7208 1.0000
vt 0.6743 1.0000
vt 0.6743 0.6556
vt 0.7208 0.6556
vt 0.7674 0.0000
vt 0.8139 0.0000
vt 0.8139 0.6556
vt 0.7674 0.6556
vt 0.8139 1.0000
vt 0.7674 1.0000
vt 0.6743 0.0000
vt 0.7208 0.0000
vt 0.9069 0.6556
vt 0.8604 0.6556
vt 0.8604 0.0000
vt 0.9069 0.0000
vt 0.3139 0.0000
vt 0.3139 0.3444
vt 0.4708 0.0000
vt 0.4708 0.3444
vn 0.0000 1.0000 -0.0000
vn -0.0000 -1.0000 -0.0000
vn -0.7044 -0.0000 -0.7098
vn 0.0000 0.0000 1.0000
vn 0.7044 -0.0000 -0.7098
vn -0.0000 -0.0000 -1.0000
vn 0.7044 0.0000 0.7098
vn -0.7044 0.0000 0.7098
usemtl Material
s off
f 9/1/1 2/2/1 3/3/1 10/4/1
f 11/5/2 12/6/2 7/7/2 6/8/2
f 9/9/3 11/10/3 6/11/3 2/12/3
f 2/13/4 6/14/4 7/15/4 3/16/4
f 10/17/5 12/18/5 8/19/5 4/20/5
f 5/21/6 1/22/6 4/20/6 8/19/6
f 3/16/7 7/15/7 12/23/7 10/24/7
f 1/25/8 5/26/8 11/27/8 9/28/8
f 5/29/2 8/30/2 12/6/2 11/5/2
f 1/31/1 9/1/1 10/4/1 4/32/1
f 21/33/1 14/34/1 15/35/1 22/36/1
f 23/37/2 24/38/2 19/39/2 18/40/2
f 21/41/3 23/42/3 18/43/3 14/44/3
f 14/45/4 18/46/4 19/47/4 15/48/4
f 22/49/5 24/50/5 20/51/5 16/52/5
f 17/53/6 13/54/6 16/52/6 20/51/6
f 15/48/7 19/47/7 24/55/7 22/56/7
f 13/57/8 17/58/8 23/59/8 21/60/8
f 17/61/2 20/62/2 24/38/2 23/37/2
f 13/63/1 21/33/1 22/36/1 16/64/1
