# Blender v2.77 (sub 0) OBJ File: 'but.blend'
# www.blender.org
mtllib but.mtl
o Cube
v -6.047773 0.000000 -1.776996
v 6.047773 0.000000 -1.776995
v 6.047771 0.000000 1.891601
v -6.047775 0.000000 1.891600
v -6.047770 4.599124 -1.776997
v 6.047777 4.599124 -1.776994
v 6.047771 4.599124 1.891602
v -6.047773 4.599124 1.891600
v -5.737025 0.190471 -1.776996
v 5.737025 0.190471 -1.776995
v -5.737021 4.408652 -1.776996
v 5.737029 4.408652 -1.776994
v -5.737025 0.190471 1.387654
v 5.737025 0.190471 1.387655
v -5.737021 4.408652 1.387653
v 5.737029 4.408652 1.387656
vt 0.8346 0.0000
vt 0.8346 0.7414
vt 0.7388 0.7414
vt 0.7388 0.0000
vt 0.6430 0.0000
vt 0.7388 0.0000
vt 0.7388 0.7414
vt 0.6430 0.7414
vt 0.2204 0.0000
vt 0.2204 0.7414
vt 0.2113 0.7224
vt 0.2113 0.0190
vt 0.5366 0.9853
vt 0.5366 0.7033
vt 0.6325 0.7033
vt 0.6325 0.9853
vt 0.4408 0.7414
vt 0.2204 0.7414
vt 0.2204 0.0000
vt 0.4408 0.0000
vt 0.5366 0.7033
vt 0.5366 0.9853
vt 0.4408 0.9853
vt 0.4408 0.7033
vt 0.0827 1.0000
vt 0.0827 0.7414
vt 0.1654 0.7414
vt 0.1654 1.0000
vt 0.0000 0.7414
vt 0.0091 0.7224
vt 0.0000 0.0000
vt 0.0091 0.0190
vt 0.6430 0.7033
vt 0.4408 0.7033
vt 0.4408 0.0000
vt 0.6430 0.0000
vt 1.0000 0.0000
vt 1.0000 0.7033
vt 0.9173 0.7033
vt 0.9173 0.0000
vt 0.9173 0.0000
vt 0.9173 0.7033
vt 0.8346 0.7033
vt 0.8346 0.0000
vt 0.0827 0.7414
vt 0.0827 1.0000
vt 0.0000 1.0000
vt 0.0000 0.7414
vn 0.0000 -1.0000 0.0000
vn 0.0000 1.0000 -0.0000
vn 0.0000 0.0000 -1.0000
vn 1.0000 -0.0000 0.0000
vn -0.0000 -0.0000 1.0000
vn -1.0000 0.0000 -0.0000
usemtl Material
s off
f 1/1/1 2/2/1 3/3/1 4/4/1
f 5/5/2 8/6/2 7/7/2 6/8/2
f 5/9/3 6/10/3 12/11/3 11/12/3
f 2/13/4 6/14/4 7/15/4 3/16/4
f 3/17/5 7/18/5 8/19/5 4/20/5
f 5/21/6 1/22/6 4/23/6 8/24/6
f 12/25/6 10/26/6 14/27/6 16/28/6
f 6/10/3 2/29/3 10/30/3 12/11/3
f 1/31/3 5/9/3 11/12/3 9/32/3
f 2/29/3 1/31/3 9/32/3 10/30/3
f 13/33/3 15/34/3 16/35/3 14/36/3
f 10/37/2 9/38/2 13/39/2 14/40/2
f 11/41/1 12/42/1 16/43/1 15/44/1
f 9/45/4 11/46/4 15/47/4 13/48/4
